<?xml version="1.0" encoding="utf-8"?>
<!-- Generator: Adobe Illustrator 16.0.0, SVG Export Plug-In . SVG Version: 6.00 Build 0)  -->
<!DOCTYPE svg PUBLIC "-//W3C//DTD SVG 1.1//EN" "http://www.w3.org/Graphics/SVG/1.1/DTD/svg11.dtd">
<svg version="1.1" id="Layer_1" xmlns="http://www.w3.org/2000/svg" xmlns:xlink="http://www.w3.org/1999/xlink" x="0px" y="0px"
	 width="189px" height="49px" viewBox="0 0 189 49" enable-background="new 0 0 189 49" xml:space="preserve">
<g>
	<path fill="#FFFFFF" d="M16.221,22.402c1.589,0.795,2.77,1.423,3.542,1.889c0.772,0.463,1.448,1.118,2.025,1.957
		c0.58,0.839,0.87,1.985,0.87,3.436c0,2.02-0.773,3.682-2.316,4.986c-1.544,1.305-3.28,1.956-5.212,1.956
		c-1.271,0-2.343-0.158-3.217-0.475c-0.875-0.316-1.915-0.791-3.117-1.424l-0.102-5.086c0.477,1.535,1.214,2.843,2.213,3.923
		c1,1.084,2.327,1.625,3.985,1.625c1.636,0,2.816-0.482,3.543-1.446c0.725-0.965,1.089-2.004,1.089-3.118
		c0-1.45-0.365-2.451-1.089-2.997c-0.727-0.544-2.283-1.404-4.667-2.588c-1.726-0.863-2.985-1.765-3.779-2.708
		c-0.795-0.942-1.193-2.094-1.193-3.456c0-1.908,0.722-3.389,2.163-4.444c1.44-1.056,3.071-1.584,4.888-1.584
		c1.929,0,3.551,0.44,4.87,1.316l0.169,4.481c-0.25-1.043-0.863-2.037-1.84-2.986c-0.976-0.948-2.202-1.424-3.677-1.424
		c-1.295,0-2.248,0.381-2.862,1.141c-0.611,0.76-0.919,1.583-0.919,2.467c0,0.998,0.308,1.773,0.919,2.331
		C13.122,20.73,14.358,21.472,16.221,22.402L16.221,22.402z"/>
	<path fill="#FFFFFF" d="M31.472,20.229c1.611,0,2.984,0.397,4.12,1.191c1.135,0.794,1.969,1.814,2.503,3.061
		c0.533,1.249,0.8,2.574,0.8,3.981c0,1.314-0.317,2.618-0.954,3.91c-0.636,1.294-1.52,2.325-2.657,3.098
		c-1.134,0.77-2.429,1.155-3.88,1.155c-2.453,0-4.309-0.833-5.57-2.5c-1.258-1.667-1.889-3.556-1.889-5.663
		c0-1.362,0.307-2.681,0.919-3.964c0.613-1.282,1.499-2.313,2.657-3.096C28.679,20.621,29.995,20.229,31.472,20.229L31.472,20.229z
		 M31.165,21.468c-1.408,0.066-2.463,0.787-3.167,2.156c-0.703,1.37-1.021,3.04-0.954,5.009c0.068,1.925,0.517,3.531,1.346,4.823
		c0.828,1.291,1.913,1.9,3.252,1.831c1.407-0.066,2.468-0.762,3.184-2.087c0.716-1.323,1.039-2.982,0.97-4.975
		c-0.067-1.29-0.278-2.433-0.629-3.429c-0.353-0.998-0.858-1.807-1.516-2.428C32.992,21.745,32.162,21.446,31.165,21.468
		L31.165,21.468z"/>
	<path fill="#FFFFFF" d="M59.785,17.504v3.129h4.7l-1.19,1.43h-3.578v9.589c0,2.359,1.032,3.537,3.099,3.537
		c0.589,0,1.011-0.067,1.26-0.206c0.25-0.137,0.556-0.366,0.92-0.685c0,0.479-0.353,0.986-1.056,1.524
		c-0.704,0.534-1.499,0.803-2.385,0.803c-1.408,0-2.551-0.436-3.427-1.31c-0.878-0.874-1.314-2.08-1.314-3.623v-9.628h-1.466
		L59.785,17.504L59.785,17.504z"/>
	<path fill="#FFFFFF" d="M75.227,20.224c1.43,0,2.64,0.415,3.628,1.242c0.988,0.828,1.481,1.991,1.481,3.488V35.03
		c0,0.364,0.057,0.612,0.17,0.748c0.113,0.138,0.352,0.317,0.715,0.545h-4.699c0.613-0.341,0.919-0.773,0.919-1.296V26.06
		c0-1.159-0.278-2.091-0.833-2.797c-0.56-0.705-1.494-1.058-2.811-1.058c-0.772,0-1.493,0.177-2.164,0.529
		c-0.669,0.352-1.187,0.768-1.55,1.245v11.049c0,0.295,0.069,0.534,0.205,0.715c0.137,0.185,0.386,0.376,0.749,0.581h-4.811
		c0.591-0.318,0.887-0.75,0.887-1.294V15.024c0-0.432-0.098-0.727-0.29-0.885c-0.193-0.16-0.494-0.319-0.903-0.478l4.164-0.818
		v9.809C71.946,21.034,73.66,20.224,75.227,20.224L75.227,20.224z"/>
	<path fill="#FFFFFF" d="M115.756,20.229c1.296,0,2.46,0.409,3.491,1.225c1.032,0.817,1.552,1.962,1.552,3.44v10.141
		c0,0.297,0.072,0.539,0.219,0.731c0.148,0.194,0.369,0.381,0.664,0.561h-4.732c0.635-0.383,0.953-0.815,0.953-1.292v-9.128
		c0-1.112-0.283-2.015-0.851-2.707c-0.568-0.692-1.477-1.038-2.725-1.038c-1.431,0-2.656,0.714-3.679,2.145
		c0.045,0.113,0.068,0.283,0.068,0.51v10.218c0,0.296,0.074,0.538,0.221,0.731c0.147,0.194,0.369,0.381,0.664,0.561h-4.743
		c0.591-0.339,0.884-0.771,0.884-1.292v-9.264c0-2.405-1.179-3.609-3.54-3.609c-1.34,0-2.485,0.579-3.439,1.736v11.137
		c0,0.318,0.067,0.557,0.203,0.715c0.137,0.16,0.386,0.352,0.751,0.577h-4.77c0.59-0.339,0.886-0.771,0.886-1.292V22.408
		c0-0.455-0.114-0.772-0.34-0.953c-0.227-0.182-0.522-0.317-0.885-0.408l4.154-0.817v2.327c0.749-0.629,1.517-1.173,2.299-1.634
		c0.783-0.462,1.675-0.693,2.674-0.693c0.998,0,1.942,0.26,2.83,0.778c0.887,0.517,1.49,1.248,1.81,2.194
		c0.636-0.832,1.437-1.536,2.402-2.111C113.742,20.516,114.735,20.229,115.756,20.229L115.756,20.229z"/>
	<path fill="#FFFFFF" d="M143.063,17.504v3.129h4.699l-1.188,1.43h-3.58v9.589c0,2.359,1.034,3.537,3.1,3.537
		c0.591,0,1.01-0.067,1.259-0.206c0.251-0.137,0.558-0.366,0.921-0.685c0,0.479-0.352,0.986-1.056,1.524
		c-0.703,0.534-1.499,0.803-2.384,0.803c-1.408,0-2.55-0.436-3.428-1.31c-0.877-0.874-1.315-2.08-1.315-3.623v-9.628h-1.466
		L143.063,17.504L143.063,17.504z"/>
	<path fill="#FFFFFF" d="M155.778,20.229c1.61,0,2.986,0.397,4.12,1.191s1.968,1.814,2.505,3.061
		c0.531,1.249,0.799,2.574,0.799,3.981c0,1.314-0.32,2.618-0.954,3.91c-0.637,1.294-1.522,2.325-2.656,3.098
		c-1.136,0.77-2.43,1.155-3.882,1.155c-2.453,0-4.31-0.833-5.569-2.5c-1.261-1.667-1.891-3.556-1.891-5.663
		c0-1.362,0.307-2.681,0.92-3.964c0.614-1.282,1.498-2.313,2.657-3.096C152.984,20.621,154.303,20.229,155.778,20.229
		L155.778,20.229z M155.471,21.468c-1.407,0.066-2.465,0.787-3.167,2.156c-0.704,1.37-1.022,3.04-0.954,5.009
		c0.068,1.925,0.516,3.531,1.345,4.823c0.828,1.291,1.914,1.9,3.254,1.831c1.405-0.066,2.469-0.762,3.185-2.087
		c0.714-1.323,1.038-2.982,0.969-4.975c-0.067-1.29-0.279-2.433-0.63-3.429c-0.353-0.998-0.856-1.807-1.515-2.428
		C157.298,21.745,156.469,21.446,155.471,21.468L155.471,21.468z"/>
	<path fill="#FFFFFF" d="M172.848,20.229c0.84,0,1.658,0.193,2.453,0.579c0.793,0.386,1.424,0.924,1.89,1.618
		c0.466,0.691,0.698,1.537,0.698,2.534v10.075c0,0.297,0.052,0.512,0.153,0.647c0.102,0.137,0.348,0.352,0.731,0.645h-4.664
		c0.589-0.316,0.887-0.75,0.887-1.294v-8.867c0-2.636-1.206-3.955-3.612-3.955c-0.636,0-1.267,0.171-1.891,0.513
		c-0.624,0.341-1.141,0.761-1.55,1.261v11.049c0,0.296,0.074,0.539,0.223,0.733c0.146,0.194,0.366,0.381,0.663,0.561h-4.709
		c0.569-0.315,0.851-0.748,0.851-1.292V22.408c0-0.68-0.373-1.158-1.123-1.431l4.096-0.747v2.427
		c0.546-0.592,1.266-1.146,2.163-1.657C171.003,20.487,171.916,20.229,172.848,20.229L172.848,20.229z"/>
	<path fill="#FFFFFF" d="M137.172,24.737c-0.408-1.077-0.942-1.938-1.6-2.585c-0.659-0.646-1.363-1.128-2.112-1.446
		c-0.749-0.317-1.522-0.476-2.317-0.476c-0.999,0-1.911,0.212-2.74,0.638c-0.83,0.425-1.471,0.904-1.925,1.441v-2.08l-4.061,0.886
		c0.749,0.226,1.123,0.705,1.123,1.43v20.268c0,0.613-0.296,1.045-0.887,1.294h4.744c-0.592-0.274-0.886-0.707-0.886-1.299V23.776
		c0.386-0.475,0.874-0.871,1.464-1.188s1.248-0.476,1.976-0.476c1.158,0,2.22,0.476,3.185,1.427
		c0.965,0.951,1.447,2.593,1.447,4.925c0,2.15-0.448,3.826-1.345,5.025c-0.897,1.201-2.104,1.799-3.626,1.799
		c-1.112,0-1.626-0.229-2.586-1.049l0.781,2.095c0.692,0.193,1.428,0.293,2.212,0.293c2.384,0,4.273-0.861,5.67-2.587
		c1.397-1.722,2.096-3.626,2.096-5.713C137.785,27.012,137.579,25.815,137.172,24.737L137.172,24.737z"/>
	<path fill="#FFFFFF" d="M49.067,34.202c-0.544,0.296-1.192,0.443-1.941,0.443c-1,0-1.834-0.388-2.504-1.16
		c-0.671-0.771-1.004-1.851-1.004-3.237V20.229l-4.13,0.817c0.771,0.25,1.156,0.701,1.156,1.36v7.824
		c0,2.246,0.547,3.872,1.64,4.881c1.094,1.011,2.276,1.515,3.546,1.515c1.467,0,2.805-0.494,4.017-1.475l0.597-1.988
		C49.932,33.654,49.561,33.936,49.067,34.202L49.067,34.202z"/>
	<path fill="#FFFFFF" d="M53.63,33.599V20.229l-4.087,0.818c0.363,0.091,0.653,0.228,0.869,0.408c0.215,0.182,0.324,0.5,0.324,0.955
		v10.385l0.053,1.469c0.004-0.005,0.009-0.01,0.016-0.016c0,0.68,0.089,1.178,0.272,1.493c0.181,0.318,0.498,0.611,0.953,0.884
		l2.962-1.088C54.084,35.402,53.63,34.755,53.63,33.599L53.63,33.599z"/>
	<path fill="#FFFFFF" d="M94.969,35.011c-0.101-0.226-0.153-0.589-0.153-1.087v-9.107c0-1.767-0.546-2.972-1.64-3.618
		c-1.093-0.647-2.332-0.969-3.715-0.969c-1.84,0-3.635,0.565-5.382,1.694l0.068,4.202c0.478-1.423,1.091-2.548,1.839-3.371
		c0.75-0.825,1.771-1.239,3.065-1.239c0.999,0,1.737,0.291,2.214,0.87c0.476,0.579,0.715,1.276,0.715,2.093
		c0,0.861-0.045,1.337-0.137,1.428c-0.295,0.342-0.727,0.604-1.294,0.784c-0.568,0.181-1.528,0.471-2.878,0.867
		c-1.351,0.397-2.277,0.754-2.775,1.071c-1.521,0.907-2.282,2.188-2.282,3.846c0,0.93,0.346,1.854,1.038,2.774
		c0.692,0.917,1.709,1.377,3.049,1.377c1.583,0,3.035-0.539,4.355-1.614l0.624-1.787c-1.062,0.976-2.255,1.47-3.582,1.47
		c-0.771,0-1.396-0.248-1.873-0.744c-0.476-0.494-0.715-1.181-0.715-2.061c0-0.788,0.239-1.42,0.715-1.893
		c0.477-0.473,1.18-0.892,2.112-1.251c1.952-0.607,3.167-1.037,3.644-1.284v5.476c-0.009,0.008,0.027,1.185,0.035,1.177
		c0.021,0.806,0.113,1.342,0.273,1.619c0.158,0.274,0.466,0.582,0.922,0.928l2.627-1.173C95.362,35.397,95.071,35.238,94.969,35.011
		L94.969,35.011z"/>
	<path fill="#FFFFFF" d="M76.983,7.903v5.529c0,0.903,0.314,2.289,2.158,2.289c1.752,0,2.3-1.11,2.3-2.289l-0.051-5.529
		c0-0.3-0.131-0.483-0.34-0.589h1.45c-0.209,0.106-0.353,0.289-0.353,0.589l-0.04,5.477c0,2.144-1.386,2.941-3.02,2.941
		c-1.438,0-3.358-0.704-3.358-2.915V7.903c0-0.3-0.209-0.483-0.404-0.589h2.09C77.206,7.419,76.983,7.603,76.983,7.903L76.983,7.903
		z"/>
	<path fill="#FFFFFF" d="M90.342,7.903c0-0.3-0.145-0.483-0.34-0.589h1.36c-0.209,0.106-0.354,0.289-0.354,0.589v8.55
		c0,0-6.262-7.557-6.262-7.687v6.851c0,0.286,0.131,0.469,0.366,0.587h-1.384c0.195-0.118,0.339-0.301,0.339-0.587V8.399
		c0-0.379,0-0.405-0.156-0.615c-0.145-0.156-0.3-0.338-0.602-0.471h1.868l5.164,6.367V7.903L90.342,7.903z"/>
	<path fill="#FFFFFF" d="M94.575,7.313c-0.196,0.106-0.339,0.289-0.339,0.589v7.714c0,0.286,0.143,0.469,0.339,0.587h-1.934
		c0.209-0.118,0.352-0.301,0.352-0.587V7.903c0-0.3-0.143-0.483-0.352-0.589H94.575L94.575,7.313z"/>
	<path fill="#FFFFFF" d="M102.069,7.942c0.117-0.314,0.093-0.496-0.223-0.628h1.438c-0.341,0.223-0.315,0.289-0.472,0.628
		c-0.209,0.509-3.254,8.601-3.254,8.601S96.2,8.425,95.977,7.942c-0.143-0.262-0.248-0.47-0.68-0.628h2.38
		c-0.34,0.132-0.34,0.444-0.248,0.772c0.026,0.04,2.34,6.065,2.34,6.065S102.069,7.994,102.069,7.942L102.069,7.942z"/>
	<path fill="#FFFFFF" d="M108.756,8.475c-0.261-0.3-0.537-0.458-1.099-0.458c-0.247,0-2.249-0.025-2.249-0.025v2.958h2.132
		c0.182,0,0.393-0.208,0.457-0.367v1.411c-0.064-0.157-0.275-0.367-0.457-0.367h-2.132v3.859c0.287,0.026,0.902,0.091,1.518,0.079
		c1.411,0,1.908,0,2.392-0.823l-0.275,1.463h-5.254c0.235-0.118,0.392-0.274,0.392-0.587V7.903c0-0.3-0.156-0.483-0.366-0.589h4.916
		L108.756,8.475L108.756,8.475z"/>
	<path fill="#FFFFFF" d="M113.563,11.694c0.708,0.146,1.072,0.693,1.269,0.981c0,0,1.386,2.391,1.961,3.005
		c0.274,0.315,0.838,0.523,0.838,0.523l-1.333,0.025c-0.511,0-0.877-0.34-1.072-0.613c-0.669-0.981-1.138-1.702-1.596-2.434
		c-0.34-0.522-0.614-1.085-1.293-1.085c-0.236,0-0.761,0-0.761,0v3.519c0,0.286,0.171,0.469,0.368,0.587h-1.95
		c0.199-0.118,0.354-0.301,0.354-0.587V7.903c0-0.3-0.155-0.483-0.354-0.589h2.459c2.615,0,3.178,1.36,3.178,2.184
		C115.631,10.91,114.375,11.628,113.563,11.694L113.563,11.694z M111.576,7.877v3.544c0,0,0.42,0.025,0.761,0.025
		c0.994,0,1.973-0.536,1.973-1.909c0-0.615-0.366-1.7-1.751-1.7C111.97,7.837,111.576,7.877,111.576,7.877L111.576,7.877z"/>
	<path fill="#FFFFFF" d="M123.001,13.655c0,1.633-1.488,2.666-2.887,2.666c-1.14,0-1.948-0.458-2.432-0.732l-0.041-1.961
		c0.274,0.942,0.981,2.145,2.379,2.145c1.413,0,1.78-1.111,1.78-1.751c0-1.255-0.956-1.503-2.21-2.144
		c-1.27-0.627-1.908-1.295-1.908-2.367c0-1.568,1.464-2.314,2.706-2.314c0.481,0,1.255,0.091,1.869,0.498l0.065,1.724
		c-0.157-0.626-0.89-1.699-2.118-1.699c-1.112,0-1.45,0.824-1.45,1.386c0,0.823,0.521,1.137,1.778,1.751
		C121.773,11.497,123.001,11.903,123.001,13.655L123.001,13.655z"/>
	<path fill="#FFFFFF" d="M125.774,7.313c-0.196,0.106-0.339,0.289-0.339,0.589v7.714c0,0.286,0.143,0.469,0.339,0.587h-1.935
		c0.209-0.118,0.353-0.301,0.353-0.587V7.903c0-0.3-0.144-0.483-0.353-0.589H125.774L125.774,7.313z"/>
	<path fill="#FFFFFF" d="M130.595,7.94v7.677c0,0.286,0.13,0.469,0.34,0.587h-1.936c0.222-0.118,0.342-0.301,0.342-0.587V7.94
		c-0.979,0-2.146,0.092-2.146,0.092c-0.312,0-0.56,0.301-0.679,0.51V7.313h6.878l0.012,1.229c-0.131-0.209-0.34-0.484-0.68-0.51
		C132.727,8.032,131.551,7.94,130.595,7.94L130.595,7.94z"/>
	<path fill="#FFFFFF" d="M141.076,7.313c-0.379,0.159-0.614,0.406-0.771,0.72l-2.117,3.961v3.622c0,0.286,0.248,0.469,0.483,0.587
		h-2.235c0.209-0.118,0.482-0.274,0.482-0.587v-3.571l-2.496-4.104c-0.21-0.314-0.365-0.445-0.731-0.628h2.522
		c-0.3,0.132-0.549,0.196-0.21,0.812l1.832,3.228l1.777-3.411c0.183-0.353,0.093-0.522-0.272-0.628H141.076L141.076,7.313z"/>
	<path fill="#FFFFFF" d="M149.135,16.321c-2.184-0.052-4.113-1.999-4.056-4.692c0.058-2.118,1.611-4.523,4.28-4.433
		c1.859,0.041,4.034,1.661,3.979,4.644C153.282,14.818,151.017,16.388,149.135,16.321L149.135,16.321z M146.451,11.563
		c0,2.864,1.415,4.158,2.801,4.158c1.667,0,2.706-1.49,2.706-3.844c0.024-2.522-1.039-4.132-2.727-4.132
		C147.564,7.745,146.451,9.171,146.451,11.563L146.451,11.563z"/>
	<path fill="#FFFFFF" d="M156.174,16.204h-1.986c0.234-0.118,0.364-0.274,0.364-0.587V7.903c0-0.3-0.155-0.483-0.364-0.589h5.216
		l-0.005,1.19c-0.183-0.313-0.473-0.495-1.113-0.495c-0.313-0.027-2.496-0.053-2.496-0.053l0.019,2.997h2.158
		c0.183,0,0.394-0.209,0.456-0.367v1.413c-0.063-0.156-0.273-0.365-0.456-0.365h-2.158l-0.026,3.982
		C155.781,15.93,155.938,16.086,156.174,16.204L156.174,16.204z"/>
</g>
</svg>
