<?xml version="1.0" encoding="utf-8"?>
<!-- Generator: Adobe Illustrator 16.0.3, SVG Export Plug-In . SVG Version: 6.00 Build 0)  -->
<!DOCTYPE svg PUBLIC "-//W3C//DTD SVG 1.1//EN" "http://www.w3.org/Graphics/SVG/1.1/DTD/svg11.dtd">
<svg version="1.1" id="Layer_1" xmlns="http://www.w3.org/2000/svg" xmlns:xlink="http://www.w3.org/1999/xlink" x="0px" y="0px"
	 width="298px" height="80px" viewBox="0 0 298 80" enable-background="new 0 0 298 80" xml:space="preserve">
<g>
	<path d="M21.156,39.13c2.649,1.324,4.616,2.372,5.903,3.148c1.287,0.772,2.413,1.863,3.376,3.262c0.966,1.398,1.45,3.31,1.45,5.727
		c0,3.365-1.288,6.136-3.86,8.311c-2.574,2.175-5.468,3.26-8.687,3.26c-2.119,0-3.905-0.263-5.362-0.79
		c-1.459-0.527-3.191-1.318-5.195-2.374l-0.169-8.477c0.794,2.559,2.022,4.737,3.689,6.539c1.666,1.807,3.878,2.707,6.641,2.707
		c2.726,0,4.693-0.803,5.905-2.41c1.208-1.608,1.816-3.34,1.816-5.196c0-2.418-0.608-4.086-1.816-4.995
		c-1.211-0.907-3.805-2.342-7.779-4.313c-2.877-1.438-4.975-2.942-6.299-4.513c-1.325-1.57-1.988-3.49-1.988-5.76
		c0-3.18,1.203-5.649,3.605-7.406c2.401-1.76,5.118-2.641,8.147-2.641c3.215,0,5.919,0.733,8.116,2.194l0.282,7.469
		c-0.417-1.738-1.439-3.395-3.066-4.977c-1.627-1.581-3.669-2.375-6.128-2.375c-2.158,0-3.747,0.636-4.77,1.902
		c-1.019,1.267-1.532,2.64-1.532,4.111c0,1.663,0.513,2.955,1.532,3.885C15.99,36.343,18.052,37.58,21.156,39.13L21.156,39.13
		L21.156,39.13z"/>
	<path d="M46.062,37.573c-2.346,0.11-4.105,1.312-5.279,3.594c-1.172,2.283-1.702,5.066-1.589,8.347
		c0.113,3.208,0.861,5.886,2.243,8.039c1.381,2.151,3.188,3.168,5.421,3.053c2.345-0.111,4.114-1.271,5.307-3.479
		c1.193-2.205,1.731-4.971,1.617-8.291c-0.112-2.15-0.464-4.054-1.049-5.714c-0.588-1.663-1.43-3.011-2.526-4.047
		C49.108,38.034,47.725,37.536,46.062,37.573L46.062,37.573L46.062,37.573z M46.575,35.509c2.685,0,4.973,0.662,6.867,1.985
		c1.892,1.323,3.282,3.023,4.173,5.102c0.888,2.081,1.333,4.29,1.333,6.635c0,2.191-0.53,4.364-1.591,6.517
		c-1.06,2.157-2.533,3.876-4.428,5.163c-1.891,1.283-4.048,1.926-6.468,1.926c-4.088,0-7.182-1.389-9.284-4.166
		c-2.097-2.778-3.149-5.926-3.149-9.439c0-2.271,0.511-4.468,1.533-6.606c1.022-2.137,2.498-3.855,4.428-5.16
		C41.919,36.161,44.113,35.509,46.575,35.509L46.575,35.509L46.575,35.509z"/>
	<path d="M93.763,30.967v5.215h7.833l-1.983,2.384h-5.964v15.981c0,3.932,1.721,5.895,5.165,5.895c0.982,0,1.685-0.112,2.1-0.343
		c0.417-0.228,0.926-0.61,1.534-1.142c0,0.799-0.588,1.645-1.76,2.541c-1.174,0.891-2.498,1.338-3.975,1.338
		c-2.347,0-4.252-0.726-5.712-2.182c-1.464-1.458-2.191-3.468-2.191-6.04V38.568h-2.443L93.763,30.967L93.763,30.967L93.763,30.967z
		"/>
	<path d="M119.5,35.5c2.384,0,4.4,0.691,6.047,2.07c1.646,1.379,2.468,3.318,2.468,5.813v16.794c0,0.607,0.095,1.021,0.285,1.247
		c0.188,0.229,0.586,0.529,1.191,0.908h-7.832c1.021-0.568,1.532-1.29,1.532-2.16V45.226c0-1.931-0.464-3.485-1.389-4.662
		c-0.932-1.174-2.49-1.762-4.684-1.762c-1.288,0-2.489,0.295-3.606,0.881c-1.116,0.587-1.977,1.28-2.583,2.075v18.415
		c0,0.492,0.115,0.891,0.341,1.191c0.229,0.308,0.643,0.627,1.248,0.969H104.5c0.984-0.53,1.477-1.251,1.477-2.157V26.833
		c0-0.719-0.163-1.211-0.483-1.475c-0.322-0.266-0.823-0.532-1.505-0.796l6.94-1.363v16.347C114.033,36.849,116.889,35.5,119.5,35.5
		L119.5,35.5L119.5,35.5z"/>
	<path d="M187.05,35.509c2.16,0,4.099,0.682,5.818,2.042c1.721,1.362,2.586,3.271,2.586,5.733v16.901
		c0,0.495,0.122,0.899,0.366,1.22c0.246,0.324,0.614,0.634,1.106,0.935h-7.888c1.059-0.639,1.59-1.36,1.59-2.154V44.972
		c0-1.854-0.473-3.358-1.418-4.512c-0.948-1.154-2.461-1.73-4.542-1.73c-2.384,0-4.426,1.19-6.13,3.575
		c0.074,0.189,0.113,0.472,0.113,0.85v17.03c0,0.493,0.123,0.896,0.368,1.22c0.245,0.324,0.615,0.634,1.107,0.935h-7.906
		c0.985-0.565,1.474-1.286,1.474-2.154v-15.44c0-4.009-1.966-6.015-5.901-6.015c-2.233,0-4.143,0.965-5.732,2.893v18.562
		c0,0.531,0.113,0.928,0.338,1.191c0.228,0.268,0.644,0.587,1.251,0.963h-7.948c0.983-0.565,1.475-1.286,1.475-2.154V39.139
		c0-0.757-0.189-1.286-0.566-1.588c-0.377-0.303-0.871-0.529-1.475-0.681l6.925-1.361v3.878c1.248-1.048,2.528-1.956,3.831-2.723
		c1.306-0.77,2.791-1.155,4.456-1.155c1.663,0,3.239,0.434,4.718,1.296c1.477,0.861,2.484,2.081,3.016,3.657
		c1.059-1.387,2.393-2.56,4.003-3.518C183.693,35.986,185.348,35.509,187.05,35.509L187.05,35.509L187.05,35.509z"/>
	<path d="M232.562,30.967v5.215h7.832l-1.98,2.384h-5.967v15.981c0,3.932,1.724,5.895,5.166,5.895c0.984,0,1.683-0.112,2.099-0.343
		c0.418-0.228,0.928-0.61,1.535-1.142c0,0.799-0.586,1.645-1.761,2.541c-1.172,0.891-2.497,1.338-3.972,1.338
		c-2.347,0-4.251-0.726-5.713-2.182c-1.462-1.458-2.193-3.468-2.193-6.04V38.568h-2.442L232.562,30.967L232.562,30.967
		L232.562,30.967z"/>
	<path d="M253.242,37.573c-2.346,0.11-4.108,1.312-5.278,3.594c-1.174,2.283-1.705,5.066-1.59,8.347
		c0.114,3.208,0.859,5.886,2.24,8.039c1.38,2.151,3.19,3.168,5.423,3.053c2.343-0.111,4.115-1.271,5.308-3.479
		c1.19-2.205,1.729-4.971,1.615-8.291c-0.112-2.15-0.466-4.054-1.05-5.714c-0.588-1.663-1.429-3.011-2.524-4.047
		C256.286,38.034,254.906,37.536,253.242,37.573L253.242,37.573L253.242,37.573z M253.755,35.509c2.685,0,4.977,0.662,6.866,1.985
		c1.89,1.323,3.279,3.023,4.175,5.102c0.885,2.081,1.332,4.29,1.332,6.635c0,2.191-0.534,4.364-1.591,6.517
		c-1.062,2.157-2.536,3.876-4.427,5.163c-1.894,1.283-4.051,1.926-6.471,1.926c-4.088,0-7.181-1.389-9.282-4.166
		c-2.1-2.778-3.15-5.926-3.15-9.439c0-2.271,0.509-4.468,1.532-6.606c1.023-2.137,2.498-3.855,4.429-5.16
		C249.098,36.161,251.296,35.509,253.755,35.509L253.755,35.509L253.755,35.509z"/>
	<g>
		<defs>
			<rect id="SVGID_1_" x="8.612" y="13.782" width="283.468" height="61.402"/>
		</defs>
		<clipPath id="SVGID_2_">
			<use xlink:href="#SVGID_1_"  overflow="visible"/>
		</clipPath>
		<path clip-path="url(#SVGID_2_)" d="M282.203,35.509c1.399,0,2.763,0.322,4.089,0.964c1.322,0.643,2.373,1.541,3.149,2.697
			c0.775,1.153,1.165,2.561,1.165,4.224v16.791c0,0.495,0.084,0.853,0.254,1.08c0.171,0.228,0.579,0.585,1.22,1.074h-7.774
			c0.981-0.528,1.478-1.25,1.478-2.157V45.404c0-4.394-2.01-6.593-6.021-6.593c-1.06,0-2.11,0.286-3.149,0.855
			c-1.041,0.568-1.901,1.268-2.585,2.101v18.415c0,0.493,0.124,0.898,0.372,1.223c0.242,0.324,0.61,0.634,1.106,0.935h-7.85
			c0.949-0.526,1.417-1.247,1.417-2.154V39.139c0-1.133-0.621-1.929-1.872-2.385l6.826-1.245v4.046
			c0.911-0.987,2.11-1.91,3.605-2.763C279.13,35.938,280.65,35.509,282.203,35.509L282.203,35.509L282.203,35.509z"/>
		<path clip-path="url(#SVGID_2_)" d="M222.744,43.022c-0.682-1.795-1.571-3.231-2.667-4.309c-1.098-1.077-2.273-1.881-3.521-2.41
			c-1.248-0.529-2.537-0.794-3.861-0.794c-1.665,0-3.187,0.353-4.567,1.064c-1.384,0.708-2.452,1.507-3.209,2.402v-3.466
			l-6.768,1.476c1.248,0.377,1.872,1.174,1.872,2.383v33.779c0,1.022-0.493,1.742-1.477,2.157h7.907
			c-0.987-0.458-1.477-1.179-1.477-2.164V41.42c0.643-0.792,1.457-1.451,2.441-1.981c0.982-0.53,2.08-0.794,3.292-0.794
			c1.929,0,3.699,0.794,5.307,2.378c1.609,1.586,2.412,4.322,2.412,8.208c0,3.585-0.746,6.378-2.24,8.377
			c-1.496,2.001-3.509,2.998-6.044,2.998c-1.854,0-2.711-0.384-4.31-1.749l1.301,3.492c1.155,0.322,2.38,0.487,3.687,0.487
			c3.974,0,7.123-1.436,9.451-4.311c2.328-2.87,3.493-6.044,3.493-9.521C223.766,46.812,223.423,44.818,222.744,43.022
			L222.744,43.022L222.744,43.022z"/>
	</g>
	<path d="M75.9,58.797c-0.907,0.493-1.987,0.739-3.235,0.739c-1.666,0-3.057-0.647-4.173-1.934
		c-1.118-1.287-1.673-3.086-1.673-5.396V35.509l-6.884,1.361c1.285,0.417,1.928,1.169,1.928,2.268v13.04
		c0,3.744,0.912,6.453,2.733,8.136c1.822,1.684,3.792,2.523,5.91,2.523c2.445,0,4.674-0.823,6.695-2.458l0.996-3.313
		C77.342,57.884,76.723,58.352,75.9,58.797L75.9,58.797L75.9,58.797z"/>
	<path d="M83.506,57.791V35.509l-6.812,1.363c0.605,0.152,1.089,0.38,1.448,0.681c0.358,0.303,0.54,0.834,0.54,1.591v17.309
		l0.088,2.448c0.008-0.008,0.015-0.017,0.026-0.025c0,1.132,0.149,1.963,0.454,2.488c0.302,0.531,0.83,1.02,1.588,1.473l4.938-1.813
		C84.262,60.797,83.506,59.718,83.506,57.791L83.506,57.791L83.506,57.791z"/>
	<path d="M152.405,60.145c-0.169-0.376-0.255-0.982-0.255-1.812V43.155c0-2.945-0.91-4.954-2.734-6.031
		c-1.822-1.078-3.885-1.615-6.192-1.615c-3.066,0-6.058,0.942-8.97,2.823l0.114,7.002c0.796-2.372,1.819-4.246,3.066-5.618
		c1.249-1.375,2.952-2.064,5.108-2.064c1.665,0,2.895,0.484,3.691,1.449c0.793,0.964,1.191,2.127,1.191,3.488
		c0,1.435-0.076,2.228-0.228,2.38c-0.492,0.569-1.211,1.006-2.157,1.307c-0.947,0.302-2.547,0.785-4.797,1.445
		c-2.252,0.663-3.795,1.257-4.626,1.786c-2.535,1.512-3.803,3.647-3.803,6.409c0,1.55,0.576,3.091,1.73,4.624
		c1.154,1.529,2.849,2.295,5.081,2.295c2.638,0,5.058-0.897,7.259-2.69l1.039-2.979c-1.769,1.626-3.758,2.45-5.97,2.45
		c-1.286,0-2.326-0.414-3.121-1.24c-0.794-0.824-1.192-1.969-1.192-3.435c0-1.314,0.398-2.366,1.192-3.154
		c0.795-0.788,1.967-1.485,3.52-2.086c3.253-1.012,5.279-1.728,6.073-2.14v9.126c-0.015,0.014,0.046,1.975,0.058,1.962
		c0.035,1.342,0.188,2.236,0.455,2.698c0.264,0.458,0.776,0.97,1.537,1.546l4.379-1.954C153.06,60.79,152.575,60.524,152.405,60.145
		L152.405,60.145L152.405,60.145z"/>
	<path d="M122.428,14.964v9.216c0,1.505,0.524,3.814,3.596,3.814c2.921,0,3.834-1.851,3.834-3.814l-0.085-9.216
		c0-0.501-0.219-0.806-0.567-0.982h2.417c-0.349,0.176-0.588,0.481-0.588,0.982l-0.066,9.128c0,3.573-2.31,4.901-5.034,4.901
		c-2.397,0-5.597-1.173-5.597-4.857v-9.172c0-0.501-0.349-0.806-0.674-0.982h3.483C122.799,14.159,122.428,14.463,122.428,14.964
		L122.428,14.964L122.428,14.964z"/>
	<path d="M144.692,14.964c0-0.501-0.24-0.806-0.567-0.982h2.266c-0.349,0.176-0.589,0.481-0.589,0.982v14.25
		c0,0-10.436-12.594-10.436-12.812v11.418c0,0.477,0.218,0.782,0.61,0.979h-2.307c0.326-0.197,0.566-0.502,0.566-0.979V15.792
		c0-0.632,0-0.676-0.26-1.025c-0.241-0.26-0.501-0.564-1.003-0.784h3.114l8.606,10.612V14.964L144.692,14.964L144.692,14.964z"/>
	<path d="M151.748,13.982c-0.327,0.176-0.566,0.481-0.566,0.982v12.856c0,0.477,0.239,0.782,0.566,0.979h-3.223
		c0.348-0.197,0.587-0.502,0.587-0.979V14.964c0-0.501-0.239-0.806-0.587-0.982H151.748L151.748,13.982L151.748,13.982z"/>
	<path d="M164.239,15.029c0.195-0.523,0.154-0.827-0.371-1.047h2.395c-0.568,0.371-0.526,0.481-0.786,1.047
		c-0.347,0.849-5.424,14.334-5.424,14.334s-5.597-13.529-5.969-14.334c-0.238-0.436-0.413-0.783-1.133-1.047h3.967
		c-0.568,0.22-0.568,0.74-0.413,1.286c0.043,0.066,3.899,10.108,3.899,10.108S164.239,15.116,164.239,15.029L164.239,15.029
		L164.239,15.029z"/>
	<path d="M175.383,15.918c-0.435-0.5-0.895-0.764-1.831-0.764c-0.413,0-3.749-0.043-3.749-0.043v4.931h3.553
		c0.304,0,0.654-0.348,0.763-0.612v2.352c-0.109-0.261-0.459-0.612-0.763-0.612h-3.553v6.432c0.479,0.044,1.504,0.152,2.53,0.132
		c2.352,0,3.18,0,3.985-1.372L175.86,28.8h-8.757c0.392-0.197,0.654-0.457,0.654-0.979V14.964c0-0.501-0.262-0.806-0.612-0.982
		h8.195L175.383,15.918L175.383,15.918L175.383,15.918z"/>
	<path d="M180.084,14.921v5.906c0,0,0.7,0.042,1.267,0.042c1.657,0,3.288-0.893,3.288-3.181c0-1.024-0.61-2.833-2.919-2.833
		C180.739,14.855,180.084,14.921,180.084,14.921L180.084,14.921L180.084,14.921z M183.396,21.283
		c1.179,0.242,1.787,1.155,2.114,1.636c0,0,2.31,3.984,3.268,5.009c0.458,0.524,1.397,0.872,1.397,0.872l-2.222,0.042
		c-0.852,0-1.461-0.567-1.787-1.021c-1.115-1.636-1.896-2.836-2.659-4.057c-0.568-0.871-1.025-1.809-2.156-1.809
		c-0.394,0-1.267,0-1.267,0v5.865c0,0.477,0.285,0.782,0.613,0.979h-3.25c0.331-0.197,0.591-0.502,0.591-0.979V14.964
		c0-0.501-0.26-0.806-0.591-0.982h4.099c4.357,0,5.295,2.267,5.295,3.639C186.841,19.976,184.749,21.173,183.396,21.283
		L183.396,21.283L183.396,21.283z"/>
	<path d="M199.125,24.551c0,2.722-2.481,4.443-4.812,4.443c-1.899,0-3.247-0.762-4.053-1.219l-0.067-3.269
		c0.457,1.569,1.635,3.574,3.964,3.574c2.356,0,2.967-1.852,2.967-2.918c0-2.093-1.593-2.506-3.683-3.574
		c-2.115-1.045-3.181-2.159-3.181-3.945c0-2.614,2.441-3.857,4.51-3.857c0.803,0,2.092,0.151,3.115,0.83l0.11,2.874
		c-0.262-1.044-1.482-2.831-3.53-2.831c-1.854,0-2.417,1.374-2.417,2.311c0,1.372,0.87,1.896,2.963,2.919
		C197.079,20.955,199.125,21.632,199.125,24.551L199.125,24.551L199.125,24.551z"/>
	<path d="M203.748,13.982c-0.327,0.176-0.566,0.481-0.566,0.982v12.856c0,0.477,0.239,0.782,0.566,0.979h-3.226
		c0.349-0.197,0.588-0.502,0.588-0.979V14.964c0-0.501-0.239-0.806-0.588-0.982H203.748L203.748,13.982L203.748,13.982z"/>
	<path d="M211.782,15.026v12.795c0,0.477,0.216,0.782,0.566,0.979h-3.226c0.37-0.197,0.57-0.502,0.57-0.979V15.026
		c-1.634,0-3.576,0.153-3.576,0.153c-0.52,0-0.933,0.501-1.131,0.85v-2.047h11.462l0.02,2.047c-0.217-0.349-0.566-0.807-1.132-0.85
		C215.335,15.179,213.375,15.026,211.782,15.026L211.782,15.026L211.782,15.026z"/>
	<g>
		<defs>
			<rect id="SVGID_3_" x="8.612" y="13.782" width="283.468" height="61.402"/>
		</defs>
		<clipPath id="SVGID_4_">
			<use xlink:href="#SVGID_3_"  overflow="visible"/>
		</clipPath>
		<path clip-path="url(#SVGID_4_)" d="M229.251,13.982c-0.631,0.264-1.025,0.676-1.285,1.2l-3.53,6.602v6.037
			c0,0.477,0.414,0.782,0.806,0.979h-3.726c0.349-0.197,0.805-0.457,0.805-0.979v-5.952l-4.161-6.839
			c-0.35-0.523-0.61-0.742-1.219-1.047h4.204c-0.5,0.22-0.915,0.326-0.349,1.352l3.052,5.38l2.963-5.686
			c0.305-0.587,0.154-0.871-0.455-1.047H229.251L229.251,13.982L229.251,13.982z"/>
		<path clip-path="url(#SVGID_4_)" d="M238.209,21.063c0,4.773,2.358,6.931,4.669,6.931c2.777,0,4.509-2.484,4.509-6.406
			c0.04-4.204-1.732-6.887-4.545-6.887C240.064,14.701,238.209,17.078,238.209,21.063L238.209,21.063L238.209,21.063z
			 M242.682,28.994c-3.64-0.086-6.855-3.331-6.759-7.821c0.095-3.53,2.685-7.539,7.132-7.388c3.101,0.068,6.725,2.768,6.635,7.739
			C249.594,26.49,245.818,29.107,242.682,28.994L242.682,28.994L242.682,28.994z"/>
	</g>
	<path d="M254.414,28.8h-3.312c0.392-0.197,0.607-0.457,0.607-0.979V14.964c0-0.501-0.259-0.806-0.607-0.982h8.693l-0.009,1.983
		c-0.305-0.521-0.786-0.825-1.855-0.825c-0.521-0.044-4.159-0.088-4.159-0.088l0.03,4.995h3.598c0.303,0,0.654-0.349,0.76-0.611
		v2.355c-0.105-0.259-0.457-0.608-0.76-0.608h-3.598l-0.044,6.638C253.759,28.343,254.021,28.603,254.414,28.8L254.414,28.8
		L254.414,28.8z"/>
</g>
</svg>
